# xmcd
#
# Track frame offsets:
#  150
#  15825
#  33228
#  52890
#  69808
#  87685
#  106258
#  127083
#
# Disc length: 1925 seconds
#
# Revision: 0
# Processed by: cddbd v1.5.1PL2 Copyright (c) Steve Scherf et al.
# Submitted via: Collectorz.com_Music_Collector 6.9
#
DISCID=5a078308
DTITLE=Varios - Charanga 76
DYEAR=1900
DGENRE=Tropical
TTITLE0=A. Martínez and H. Martínez - Si No Te Encuentras Tú
TTITLE1=D.R. - No Hay Quien Te Quiera Como Yo
TTITLE2=Mike García - Pita Camión
TTITLE3=Mike García - Música Y Ambiente
TTITLE4=D. Carvajal - Quiero Mas
TTITLE5=Mike García - Chicago Salsa Y Sabor
TTITLE6=W. Chirino - Soy
TTITLE7=Raúl Sequeira - Chica Boom
EXTD=
EXTT0=
EXTT1=
EXTT2=
EXTT3=
EXTT4=
EXTT5=
EXTT6=
EXTT7=
PLAYORDER=
